<svg xmlns="http://www.w3.org/2000/svg" enable-background="new 0 0 2800 2000" viewBox="0 0 2800 2000"><path fill="#fff" fill-rule="evenodd" d="M0 0h2800v2000H0z" clip-rule="evenodd" opacity=".5"/><path fill="#d5f0ff" d="M1263 80.6c336.4-18.4 644.3 79 850.6 245.5 327.5 114.2 559.6 350 580.2 633.8 30.5 421.6-417.7 789.1-1001.1 820.9-159.9 8.7-313.4-8.7-452.5-47.3-7.4.6-14.8 1-22.3 1.4-583.4 31.8-1080.9-284.2-1111.5-705.6-17.4-240.7 121.3-463.9 352-616.9C639.4 227 928.9 98.8 1263 80.6z"/><path fill="#8dafdc" fill-rule="evenodd" d="M1968 848.2c-52.8-59.7-100.8-218.9-71.4-336.7 8.8-36.1 39.6-160.8 111.4-141 25.8 36.3-2.2 132.1 77.5 109.1 35.3-22.8-64.1-83-48.9-120.8 27.3-48.2 118-100.9 175.8-73.7 14.6 23.8-41.9 171.8-7.5 184.1 35.3 3.3 17.8-98.5 26.9-147.7 14.2-48.6 96.4-38.7 147.2-37.9-43.1 48.5-68.8 96.2-49.3 108.2 50.1 23 19.9-88.5 49.3-108.2 73.4 1.3 93.1-27.7 127.1-2.3 15.5 49.1 21.4 72 9.6 119.4-28 102.4-192 69.4-183.2 104.3 20.8 24.9 129.1-35.9 142.8-21.5 33 24.6 14.4 107.6-19.1 121.6-49.4 20.7-187.3-13.4-194 15.3-8.5 35.8 167.3 5.7 196.6 62.1 19.8 48.5-13.4 116.6-43.2 158.1-29.3 64.1-201.4-117.6-219.7-99.9-16.1 64.5 219.4 131.3 141.1 202.1-45.4 34.4-102.5 32-157.9 26.5-85.7-8.7-174.7-77.4-211.1-121.1zm379.9-166.3c-5.5-6.9-16.2-7.6-23.9-1.4-7.7 6-9.5 16.7-3.9 23.7 5.6 6.8 16.3 7.5 24 1.3 7.7-6 9.4-16.7 3.8-23.6zm-175.1-117c-4.3 26.7-29.3-3.9-29.9-18.8-4.5-17.8-6.3-44.7 10.9-56 21.8 8.2 23.3 41.2 19 74.8zm-95 62.1c30.6-25-17.9-89.9-39.5-87.6-18.4 8 13.6 99 39.5 87.6zm75.9 172.5c9.6 11.2-12.1 10.7-18.5 5.7-9-4.6-21-13.5-19.6-24.7 11.2-6.2 25.7 5 38.1 19zm206.9-267.7c-13.3-10-35.4-5.1-49.6 1.6-1.4 12.4 17.1 13.1 28.5 14.5 12.4 2.3 27.3-6.2 21.1-16.1z" clip-rule="evenodd"/><path fill="#6495ce" d="M1823 1064.8c-3.2-2.6-4.1-7.3-1.9-11 77.2-128.4 164-249.5 258.1-359.9 106.2-124.6 225.7-240.2 355.1-343.6 3.7-2.9 9-2.3 11.9 1.3 2.9 3.7 2.3 9-1.3 11.9-245.2 196.1-444.5 424.7-609.3 699-2.4 4-7.6 5.3-11.6 2.9-.3-.1-.6-.3-1-.6z"/><path fill="#6495ce" d="M2258.6 517.3c-1.2-1-2.2-2.4-2.7-4-10.8-33.2-13.3-66-7.5-97.4 5.4-29.1 18-57.3 37.5-83.8 2.8-3.8 8.1-4.6 11.8-1.8 3.8 2.8 4.6 8.1 1.8 11.8-37.4 50.9-46.7 106.7-27.5 165.9 1.4 4.5-1 9.2-5.4 10.7-2.9.9-5.8.3-8-1.4z"/><path fill="#6495ce" d="M2054.7 736.7c-.1-.1-.3-.2-.4-.3-86.6-78.6-116.4-183.3-86.3-302.7 1.1-4.5 5.8-7.3 10.3-6.1 4.5 1.1 7.3 5.8 6.1 10.3-28.5 113-.4 212 81.2 286 3.5 3.1 3.7 8.5.6 12-2.9 3.2-8 3.6-11.5.8z"/><path fill="#6495ce" d="M2203.1 693c-19.8-16-39.6-35.6-60.2-59.7-3-3.6-2.6-8.9.9-11.9 3.6-3 8.9-2.6 11.9.9 71.5 83.5 138.6 116.8 231.6 114.9 4.7-.1 8.6 3.6 8.7 8.3.1 4.7-3.6 8.6-8.3 8.7-52.8 1.1-98.4-9-139.3-30.8-15.3-8.4-30.3-18.4-45.3-30.4z"/><path fill="#6495ce" d="M2055.6 856c-22.7-18.3-39.4-38.5-53.1-57.9-2.7-3.8-1.8-9.1 2-11.8 3.8-2.7 9.1-1.8 11.8 2 38 53.9 102.1 115.5 262.1 113.5 4.7-.1 8.5 3.7 8.6 8.4.1 4.7-3.7 8.5-8.4 8.6-111.1 1.4-178.5-26.9-223-62.8z"/><path fill="#dfe4f3" fill-rule="evenodd" d="M1790.9 810.9c-79.1-9.7-220.6-97-276.6-204.7-17.5-32.9-77.1-146.5-10.2-179.5 43.4 10.2 85.9 100.3 130.3 30.3 11.2-40.4-103-19.5-116.7-57.8-11.5-54.3 21.3-153.9 82.6-171.8 26.8 8.2 82.6 156.5 116.5 142.8 28.6-20.9-51.9-85.6-77.8-128.4-21.5-45.8 46.5-93 85.2-125.9-.2 64.9 12.2 117.7 34.8 113.6 52.7-15.9-43.9-79.4-34.8-113.6 55.8-47.8 51.3-82.4 93.6-86.1 44.2 26.5 63.7 39.8 86.5 83.2 46.8 95.2-97.9 179.2-68.1 199.4 32.1 4.9 72.9-112.3 92.6-110.7 41-3.5 82.2 71.1 66.3 103.6-23.2 48.3-149 114.3-135 140.1 17.3 32.5 129.1-106.7 188.3-83.9 47.1 23.3 67.3 96.1 72.5 146.9 20.6 67.4-228.6 45.7-230.6 71 30.7 59 251.2-47.3 239.6 57.7-11.2 55.8-55.4 92-100.6 124.7-70 50.1-182.1 57.8-238.4 49.1zM1965 434.5c-8.7-1.5-17.1 5.2-18.7 14.8-1.7 9.7 4 18.8 12.8 20.2 8.7 1.5 17.2-5.1 18.8-14.8 1.7-9.5-4.1-18.6-12.9-20.2zm-208.6 28.7c14.4 22.7-24.5 16.3-34.8 5.7-15.1-10.4-34.3-29.3-29-49.2 21.6-8.3 44.8 15.3 63.8 43.5zm-30 109.4c6.4-39-73-55.4-87.7-39.4-8.5 18.1 75.8 65 87.7 39.4zm171.1 78.7c14.7 2.1-1.9 16.1-10 16.6-9.8 2.7-24.7 3.9-31-5.5 4.4-12 22.6-13.2 41-11.1zM1875 313.8c-16.6 1.3-29.9 19.7-36.1 34.1 7.2 10.1 21.4-1.6 31-8.1 10.7-6.5 16.2-22.8 5.1-26z" clip-rule="evenodd"/><path fill="#8dafdc" d="M1819.1 1069c-1.9-1.5-3.3-3.7-3.8-6.3-27.5-147.2-42.8-295.5-45.5-440.8-3.1-163.8 9.7-329.6 38-493.1 1-5.8 6.5-9.6 12.2-8.6 5.8 1 9.6 6.5 8.6 12.2-53.5 309.5-51.1 612.5 7.4 926.4 1.1 5.8-2.7 11.3-8.5 12.4-3 .5-6.1-.4-8.4-2.2z"/><path fill="#8dafdc" d="M1756.5 352.7c-17.9-14.5-32.7-31.2-44.1-50.2-15.4-25.6-24.8-55.4-27.8-88.4-.5-5.8 3.8-11 9.6-11.5s11 3.8 11.5 9.6c5.7 62.2 35.5 109.6 88.5 140.8 5 3 6.7 9.5 3.8 14.5-3 5-9.5 6.7-14.5 3.8-9.8-5.7-18.7-11.9-27-18.6z"/><path fill="#8dafdc" d="M1600.1 609.7c-34-27.4-62.8-63.6-85.9-108.1-2.7-5.2-.7-11.6 4.5-14.3 5.2-2.7 11.6-.7 14.3 4.5 53.4 102.9 139.3 157.9 248.6 159.1 5.9.1 10.5 4.9 10.5 10.7-.1 5.8-4.9 10.5-10.7 10.5-70.2-.8-131.3-22-181.3-62.4z"/><path fill="#8dafdc" d="M1773.8 533.9c-2.8-2.3-4.4-5.9-3.9-9.7.8-5.8 6.1-9.8 11.9-9 108.2 14.9 180-4.5 247.8-67 4.3-4 11-3.7 15 .6s3.7 11-.6 15c-39.1 36-80.1 58.8-125.6 69.7-39.7 9.5-84 10.4-139.4 2.7-2-.3-3.7-1.1-5.2-2.3z"/><path fill="#8dafdc" d="M1778.8 750.6c-3.1-2.5-4.6-6.6-3.7-10.7 1.3-5.7 7-9.2 12.7-7.9 63.7 15 151.9 18.6 269.5-88.4 4.3-3.9 11-3.6 15 .7 3.9 4.3 3.6 11-.7 15-56.8 51.7-111.4 82.9-166.7 95.5-50.8 11.6-91.8 4.9-121.9-2.2-1.6-.3-3-1.1-4.2-2z"/><path fill="#dfe6ff" fill-rule="evenodd" d="M1416.2 1970.2c626.7 0 1137.9-24.9 1137.9-55.4s-511.2-55.4-1137.9-55.4c-626.8 0-1138 24.9-1138 55.4 0 30.6 511.2 55.4 1138 55.4z" clip-rule="evenodd"/><path fill="#0643a3" d="M521.5 795.4H977v131.4H706.9v147.4h258.4v131.4H706.9v281.3H521.5V795.4zM1215.9 795.4h222.4l261.8 691.5H1503l-49.1-146.5h-266.2l-51.6 146.5H953.6l262.3-691.5zm107.5 154.2-89.5 259.4H1410l-86.6-259.4zM2236.3 1463l154.7 154.3h-203.4L2084 1501.9h-20c-110.6 0-196.3-31.4-256.9-94.2-60.7-62.8-91-151.7-91-266.9 0-113.5 30.4-202.3 91.2-266.4 60.8-64.1 145.1-96.1 252.8-96.1 107.4 0 191.3 32 251.8 96.1s90.8 152.9 90.8 266.4c0 77.2-13.7 142.4-41.1 195.6-27.4 53.3-69.2 95.4-125.3 126.6zm-176.2-550.4c-47.7 0-86.1 20.5-115.1 61.6-29 41-43.6 95.9-43.6 164.7 0 69.1 14.4 124.3 43.3 165.4 28.9 41.2 67.3 61.8 115.3 61.8 47.7 0 85.8-20.5 114.4-61.6 28.5-41 42.8-96.3 42.8-165.7 0-68.4-14.4-123.3-43.1-164.5-28.6-41.1-66.6-61.7-114-61.7z"/><path fill="#2c7efe" d="M429.5 795.4H885v131.4H614.9v147.4h258.4v131.4H614.9v281.3H429.5V795.4zM1123.9 795.4h222.4l261.8 691.5H1411l-49.1-146.5h-266.2l-51.6 146.5H861.7l262.2-691.5zm107.6 154.2L1142 1209h176.2l-86.7-259.4zM2144.3 1463l154.7 154.3h-203.4L1992 1501.9h-20c-110.6 0-196.3-31.4-256.9-94.2-60.7-62.8-91-151.7-91-266.9 0-113.5 30.4-202.3 91.2-266.4 60.8-64.1 145.1-96.1 252.8-96.1 107.4 0 191.3 32 251.8 96.1s90.8 152.9 90.8 266.4c0 77.2-13.7 142.4-41.1 195.6-27.4 53.3-69.1 95.4-125.3 126.6zm-176.1-550.4c-47.7 0-86.1 20.5-115.1 61.6-29 41-43.6 95.9-43.6 164.7 0 69.1 14.4 124.3 43.3 165.4 28.9 41.2 67.3 61.8 115.3 61.8 47.7 0 85.8-20.5 114.4-61.6 28.5-41 42.8-96.3 42.8-165.7 0-68.4-14.4-123.3-43.1-164.5-28.6-41.1-66.6-61.7-114-61.7z"/><g><path fill="#f58a31" fill-rule="evenodd" d="M1569.3 1700.7c-11 .3-21.9.5-32.7.9-.8-33.4-9.3-81.9-2.1-100.2 6.7-39.3 216-43.1 225.3-15.2l-2.7 102.3-36.4-1.8c2.2-28.2 15.8-68 6.6-84.7-27-14.9-128.4-11.2-161 12.1-9.3 14 2 57.9 3 86.6z" clip-rule="evenodd"/><path fill="#fbb445" fill-rule="evenodd" d="M1768.8 1676.1c-2.6 12.5-2.3 24.7-4.9 37.2-1.8 15.3-5.5 35.3-14.8 43.6-2.5 22.9-138.2 5.6-268 13.1l10.2-78.2 277.5-15.7z" clip-rule="evenodd"/><path fill="#fbb445" fill-rule="evenodd" d="m1631.9 1706.5 37.8-91.2 82-274.1 99.8 3.8-86.4 364.6z" clip-rule="evenodd"/><path fill="#15489d" fill-rule="evenodd" d="m1486.7 1740.5-1.5 39.4-2.3 95.3h48.5l26-202.8z" clip-rule="evenodd"/><path fill="#8dafdc" fill-rule="evenodd" d="m1735.4 1474.9 24.8-11.5c20.3 2.9 35.6-11.8 53.4-17.6l-64.4-66.4 25.4-15.4c31.6 32 100.9 84.6 95 95.8 7.5 10.9-90.3 62.3-135.5 93.4l1.3-78.3z" clip-rule="evenodd"/><path fill="#8dafdc" fill-rule="evenodd" d="m1698.8 1468.2-25.8-24.4-18.3-33.9 94.6-30.4 5.2-27.8c-47.5 12.7-139.3 26.4-142.4 38.1-16.7 15.8 24.4 104.2 36.6 156.1l50.1-77.7z" clip-rule="evenodd"/><path fill="#8dafdc" fill-rule="evenodd" d="M1716.8 1439.7c-17.6.1-43.9 0-50.2 8.3l-46.9 167.2 108.5 21.9c14.3-56.9 27.9-111.4 42.2-168.4-3-8.8-17.4-14.7-29.9-22-7.8-2.3-15.7-4.7-23.7-7z" clip-rule="evenodd"/><path fill="#4b76ba" fill-rule="evenodd" d="m1619.7 1615.3 108.5 21.9c-.7 92.9-152.1 63.2-164.4 75.3l-153.5 175.8-53.9-1.9c51.6-72.7 134.9-216.7 153-227.5 11.8-12.5 86.6-21.4 110.3-43.6z" clip-rule="evenodd"/><path fill="#ec825c" fill-rule="evenodd" d="m1761.3 1393.4-34.8-13.8-10.3 55.3c-3.1 16.9 26.8 26.3 30.8 11.6l14.3-53.1z" clip-rule="evenodd"/><path fill="#f1ae8e" fill-rule="evenodd" d="m1787.6 1349.6-76.7-17.5c-4.4 28.5-12.9 66.3-1.3 83.7 4.2 9 28.6 17.7 42.7 14.7 11.4-3.3 31.5-46.2 35.3-80.9z" clip-rule="evenodd"/><path fill="#1b174f" fill-rule="evenodd" d="M1772.7 1355c-21.3-5.4-55.6-5.6-63.9-15.9-10.3-13.7-40.9-18.1-32.1-33.9 10.3-13.1 63.9 13.6 95.8 20.4 5.6 2.1 3.4 5.6 5.2 8.5 8 6.7 27 7.7 24 19.9-2.7 13.8-19.3 32.3-29.1 48.6-4.7-11.6 5.8-32.4.1-47.6z" clip-rule="evenodd"/><path fill="#f1ae8e" fill-rule="evenodd" d="M1767.2 1385.5c1.6-6.4 3.4-12.7 5.1-19.2 3.5-5.7 14.4-4.5 14.8 3.5.3 11.2-18 20.6-19.9 15.7z" clip-rule="evenodd"/><path fill="#7d80bc" fill-rule="evenodd" d="m1531.4 1875.2-49.7 1c-29.4 15.5-92.6 22.2-79.7 44.6 45.7-2.5 91.5-5.1 137.2-7.5 2-9.7-3.3-28.3-7.8-38.1z" clip-rule="evenodd"/><path fill="#af96c6" fill-rule="evenodd" d="m1411.6 1888.2-55.2-1.9c-29.4 15.5-90.5 24.2-77.6 46.6 45.8-2.5 91.5-5.1 137.2-7.5 2.1-9.7.1-27.4-4.4-37.2z" clip-rule="evenodd"/><path fill="#fbb445" fill-rule="evenodd" d="M1582.4 1739.5c-10.3.2-20.7.5-31 .8-.8-33.4-8.9-81.9-2.1-100.2 6.5-39.3 191.7-43.1 200.6-15.2l-6.7 101.4-17.1-.9c2-28.2 14.9-67.9 6.2-84.7-25.6-14.8-121.7-11.1-152.6 12.1-9 14 1.8 57.8 2.7 86.7z" clip-rule="evenodd"/><path fill="#fbb445" fill-rule="evenodd" d="m1578.3 1754.6-31.4 13.5 2.6 159.2 22-.2z" clip-rule="evenodd"/><path fill="#fbb445" fill-rule="evenodd" d="m1750.8 1751.9-31.3 14c-1 54.6 2.6 109.3 1.5 164l22.1.1 7.7-178.1z" clip-rule="evenodd"/></g><g><path fill="#1b174f" fill-rule="evenodd" d="m587.8 1541.9-71.9 12.2 2.9 339.4h49.6l22-203.8 16.8 203.8 46.5-.7 3.4-363-66.4-15.8z" clip-rule="evenodd"/><path fill="#f1ae8e" fill-rule="evenodd" d="m731.6 1468.6 17.9-23.6c7.6 1.8 13.6 3.7 21.6 3.7 8.6-6 23.2-18.3 26.5-12.3-1 3.3-11.6 11.9-12.3 16.6 4.9 6.7 30.5 1.8 54.7-2.4 7.6 0-4 15.9-40.8 23.2-13.8 3.1-38.7-6.9-67.6-5.2z" clip-rule="evenodd"/><path fill="#fff" fill-rule="evenodd" d="M530.7 1287.3c8.2-2.9 16.3-6.1 23-10.2 13.3 1.9 24.6 2.7 37.9 4.7 10.3-.5 25.5 7.8 34 15.2 4.1 4.8 7.8 11.1 11.4 18.4v231.7c-30.9 6.1-61.5 8.2-106.3 2.5v-262.3z" clip-rule="evenodd"/><path fill="#e8e3e4" fill-rule="evenodd" d="m575.3 1284.4-31.4-7.4-12.9 5c4.5 11.1 9 22.1 13.4 33.2 5.8-17.8 17.4-23.1 30.9-30.8z" clip-rule="evenodd"/><path fill="#e9708a" fill-rule="evenodd" d="M567 1292.8c12.5 70.9 19.2 142 17.8 215.2l11.8 11.9c5.9-6.9 11.8-13.9 17.7-20.8-2.6-73-13.1-144-38.1-207.1l-9.2.8z" clip-rule="evenodd"/><path fill="#8dafdc" fill-rule="evenodd" d="M537.1 1279.7c37.9 90.3 43.1 213.6 38.6 321.4-23-.8-49.8-4.6-83.6-12.6l17-74.9c-20.3-26.3-56.9-61-60.9-79-6-7 28-96.9 49-131.8 8.4-10.6 24.5-16.3 39.9-23.1zm-26.1 129-8 13c4.6 10.3 8 22 13.9 31-.4-14.5-3.9-29.3-5.9-44z" clip-rule="evenodd"/><path fill="#fff" fill-rule="evenodd" d="m744.3 1439.4 8.3 2.6-5 33.1s-10.7-4-11-1.1c-.3 2.9 7.5-33.3 7.7-34.6z" clip-rule="evenodd"/><path fill="#e8e3e4" fill-rule="evenodd" d="m579.8 1279.2-6.9 7.6c9.8-.4 15.8 5.5 18.8 10.9l7.2 7.8 5.6-21.9-24.7-4.4z" clip-rule="evenodd"/><path fill="#8dafdc" fill-rule="evenodd" d="M584.7 1279.8c28.8 101.2 43.1 212.3 47.4 317.1 9.7-2.2 19.4-4.8 29.5-7.8l-9-121.9 88.9 10 5-37-77.9-25.9c-14.3-40.3-26-96.9-43-120.9-6.2-6.6-28.6-12.6-40.9-13.6z" clip-rule="evenodd"/><path fill="#d84e79" fill-rule="evenodd" d="m573.4 1302.1 4-3.6 4-3.6-2.2-4.9-2.3-4.9-5.3.6-5.4.5-1 5.3-1.2 5.3 4.7 2.7z" clip-rule="evenodd"/><path fill="#f1ae8e" fill-rule="evenodd" d="m518 1514.1 18.3-15.7c3.5 6.5 7.1 13 10.6 19.6 13.6 8.9 19.9 23.5 17.9 34.6l-33.5 3.2c-1.8-9.2-5.3-18.6-3.7-28.8l-9.6-12.9z" clip-rule="evenodd"/><path fill="#8dafdc" fill-rule="evenodd" d="m516.9 1540.3 52.1 5.7-5 45.9-52.1-5.7z" clip-rule="evenodd"/><path fill="#4b76ba" d="m569.3 1550.3-48.1-5.1.3-2.7 45.4 4.8.1-.9-51.4-5.1.2-2.7 54.1 5.4z"/><path fill="#fff" fill-rule="evenodd" d="m509.8 1511.6 27.7-21.3 4.1 6-27.7 20.9z" clip-rule="evenodd"/><path fill="none" d="m503 1421.7 29-44.4"/><path fill="#4b76ba" d="M652.1 1467.8c-1.9-40.1-8.8-79.4-15.8-116.1l1.6-.3c7 36.8 13.9 76.1 15.8 116.4h-1.6z"/><path fill="#77a1d5" fill-rule="evenodd" d="M534.7 1281.2c-2.9 16.1-3.9 38.3-3.9 54.6l13.5 2.2c-2.7 4.9-8.5 11.7-11.2 16.6l34.3 64.6 3.9 8.2c-2.9-27-8.7-61.6-15.5-91-5.1-19.9-11.3-38.2-18.7-55.9-.9.1-1.7.3-2.4.7z" clip-rule="evenodd"/><path fill="#4b76ba" d="m573 1433.5-6.6-13.9-34.6-65.1.3-.5c1.4-2.5 3.6-5.5 5.7-8.4 1.7-2.3 3.4-4.7 4.7-6.8l-12.8-2.1v-.9c0-7.8.3-34.7 3.9-54.8l.1-.6.5-.2c.5-.2 1-.4 1.5-.5.3-.1.6-.2 1-.3l1-.4.4 1c7.6 18.1 13.7 36.4 18.7 56.1 6.6 28.6 12.6 63.6 15.5 91.2l.7 6.2zm-38.7-79 34 64.1 1.1 2.3c-3.1-26.4-8.6-58.1-14.7-84.4-4.9-19.2-10.9-37.2-18.2-54.8h-.1c-.3.1-.5.2-.8.2-3.4 19.1-3.8 44.2-3.8 52.9l14.1 2.3-.7 1.4c-1.4 2.5-3.6 5.5-5.7 8.4-1.9 2.6-3.9 5.3-5.2 7.6z"/><path fill="#77a1d5" fill-rule="evenodd" d="m586.9 1280.6 24.1 36-3.7 10.6 5.8 3.5.7 77.6c-7.3-44.7-16.9-85.4-29-127.8.7.1 1.3.1 2.1.1z" clip-rule="evenodd"/><path fill="#4b76ba" d="M612.7 1408.6c-6.8-41.8-16-82.3-28.9-127.7l-.4-1.5 1.5.1h.8c.4 0 .8 0 1.3.1l.5.1 24.6 36.9-3.6 10.3 5.6 3.3.7 78.2-2.1.2zm-26.5-126.9c11.3 40 19.8 76.3 26.3 113.1l-.5-63.4-6.1-3.6 3.8-10.9-23.5-35.2z"/><path fill="#15489d" fill-rule="evenodd" d="m607.1 1891.2 46.8-.8c20.9 20.8 65.4 5.1 58.9 37.1l-72.8-1.4-10.2-6.4-.2 7.2-25 .6c-.6-11.3-.4-23.8 2.5-36.3z" clip-rule="evenodd"/><path fill="#4b76ba" fill-rule="evenodd" d="m519.7 1893.8 46.9-.7c20.9 19.3 65.4 4.7 58.8 34.6l-72.8-1.3-10.2-6-.2 6.7-25 .6c-.6-10.7-.4-22.3 2.5-33.9z" clip-rule="evenodd"/><path fill="#ec825c" fill-rule="evenodd" d="m578.5 1225.2-40.2-2.1 3.5 54.8c5.4 4.7 17.1 8 27.3 9.3 6.2-1.6 10.7-4.1 13.1-7.7l-3.7-54.3z" clip-rule="evenodd"/><path fill="#f1ae8e" fill-rule="evenodd" d="m534.7 1188.7 69.4 6.4c2.2 23 1.8 68-.2 69.2-16.9 10.4-44.1 4.8-59.4-10.7-8.1-20.8-15.5-52.3-9.8-64.9z" clip-rule="evenodd"/><path fill="#1b174f" fill-rule="evenodd" d="M540.6 1198.5c-9.7 11.6-2.5 27.9-.4 44-14-13.9-17.4-38.4-21.6-59.3.9-9.9 12.9-9.1 18.9-6.8-2-6.1-1.1-15.4 10.2-17.6 42.9-4.5 67 20.6 56.6 38.8-31.8-8.6-64.1-9.4-63.7.9z" clip-rule="evenodd"/><path fill="#1b174f" fill-rule="evenodd" d="M603.9 1264.3c1.3-8.8 2.8-16 1.7-27.2-.1-12.3-17.4 10.5-39.8 7.6-9.4-5.8-22.9-40-24.2-60.9l-9.3 5.7c13.8 25.4 5.5 61.4 22.1 71.8 15.2 10.1 44.5 14.4 49.5 3z" clip-rule="evenodd"/><path fill="#f1ae8e" fill-rule="evenodd" d="m540.5 1221.3-.7-13c-1.8-6.8-9.6-11.5-11.5-3.4-1.6 7.2 9.5 20 12.2 16.4z" clip-rule="evenodd"/><path fill="#fff" fill-rule="evenodd" d="M596.5 1249.6c-1.9 4.3-6.3 7.6-11.5 8.1-5 .5-9.5-1.6-12-5.1 4.8.3 6.9 0 11.4-.5 4.4-.4 7.6-.8 12.1-2.5z" clip-rule="evenodd"/></g><g><path fill="#efad8d" fill-rule="evenodd" d="m1356.3 620.8 47.6-6.2c5 8.3 14.6 21.8 15 25 6.4 9-44 57.8-65 82.6l-18.2-31.9c10.6-17 33.4-38.9 33.6-50.2l-13-19.3z" clip-rule="evenodd"/><path fill="#efad8d" fill-rule="evenodd" d="m1197.3 620.8-47.6-6.2c-5 8.3-14.7 21.8-15 25-6.4 9 44 57.8 64.9 82.6l18.3-31.9c-10.7-17-33.4-38.9-33.7-50.2l13.1-19.3z" clip-rule="evenodd"/><path fill="#16b79e" fill-rule="evenodd" d="m1277.2 760.2-.2-.1-.2.1v-.1l-73.3-8.5-4-214.7c10.7-9 37.5-17.7 55.8-18l21.8 9.4 21.7-9.4c18.3.2 43.8 9.7 55.8 18l-2 214.4-75.4 8.9z" clip-rule="evenodd"/><path fill="#e49273" fill-rule="evenodd" d="m1298.7 491.7-43.1 3.9-.3 38.9c-.7 16.6 42.6 17.4 43.1.3l.3-43.1z" clip-rule="evenodd"/><path fill="#efad8d" fill-rule="evenodd" d="m1286.5 406.6-9.4 1.7-9.5-1.7.1 3.5-33.7 6.3c2.3 29.2-.2 75.7 6.9 87.6 6.8 10.4 23.8 14.4 36.2 14.1 12.4.2 29.4-3.8 36.1-14.1 7.1-11.8 4.6-58.4 6.9-87.6l-33.6-6.3v-3.5z" clip-rule="evenodd"/><path fill="#1a164f" fill-rule="evenodd" d="M1247.2 419.5c-8.1 3.8-7.9 27.1-11.8 40.7-3.9-23.4-11.3-45.6-2.6-63.8 4.9-10.4 28.4-20 47-17.4 9.5.8 17.7 2.9 26 7.6 6.7 4.6 6.7 5 7.5 9.2 3.6-1.4 8.8 1.5 12 6.7 9.3 14.5-3.5 37.3-6.7 58.1-3.5-13.1-.6-37.2-10.4-39.3-9-2.6-25.5 4.4-30.7 4.7-11.7 1.9-19.9-10.9-30.3-6.5z" clip-rule="evenodd"/><path fill="#1a164f" fill-rule="evenodd" d="m1235 456.9 2.4-7.2c8.5 29.8-1.7 61.4 39.4 59.6l.1 14.5c-47.6-9.8-44.4-32.7-41.9-66.9z" clip-rule="evenodd"/><path fill="#1a164f" fill-rule="evenodd" d="m1319 456.9-2.3-7.2c-8.5 29.8 1.6 61.4-39.5 59.6l-.1 14.5c47.6-9.8 44.4-32.7 41.9-66.9z" clip-rule="evenodd"/><path fill="#1a164f" fill-rule="evenodd" d="M1255.6 511.1c3.4-4.6 6.7-12.2 9.9-14 2.3-.6 5.7-.4 9-.3v.1c.8.1 1.6 0 2.5 0s1.6.1 2.4 0v-.1c3.4-.1 6.7-.2 9 .3 3.3 1.8 6.7 9.4 9.9 14l5.5-4.9c-2.6-5.2-8.7-15-12.2-16.5-3.4-1-9.4-.6-14.7-.4-5.3-.2-11.4-.6-14.8.4-3.5 1.5-9.5 11.3-12.2 16.5l5.7 4.9z" clip-rule="evenodd"/><path fill="#62caeb" fill-rule="evenodd" d="M1172.3 651.6h209.4c.7 0 1.2.7 1 1.6-4.8 26.3-9 50.4-13.1 72.5-3.6 20.4-7.1 39.2-10.2 56.7-.1.5-.7.9-1.2.9h-163.1c-.6 0-1.1-.4-1.2-.9-3-17.5-6.4-36.3-9.9-56.7-3.9-22.1-8.1-46.2-12.8-72.5-.1-.9.3-1.6 1.1-1.6z" clip-rule="evenodd"/><path fill="#7d80bc" fill-rule="evenodd" d="m1388.3 789-10.8 33.8c17.3 10.8 34.8 21.1 52.1 32 12.2 7.5 30.1-42.2 14.9-45.3l-56.2-20.5z" clip-rule="evenodd"/><path fill="#d0cae4" fill-rule="evenodd" d="m1392.3 820.4 5.8-17.7c.1-.4.5-.6.9-.5l2.7.9c.4.2.7.6.5.9l-5.8 17.8c-.1.3-.5.6-.9.4l-2.7-.9c-.4-.1-.6-.5-.5-.9z" clip-rule="evenodd"/><path fill="#d0cae4" fill-rule="evenodd" d="m1401.2 824.4 5.8-17.7c.2-.4.6-.6.9-.5l2.8.9c.3.1.6.5.4.9l-5.8 17.7c-.2.4-.6.7-1 .5l-2.7-.9c-.4-.1-.5-.5-.4-.9z" clip-rule="evenodd"/><path fill="#efad8d" fill-rule="evenodd" d="m1371 782.7-11.8 34.2 18.6 5.7c9.6-5.9 16.6-24.3 10.7-33.3l-17.5-6.6z" clip-rule="evenodd"/><path fill="#7d80bc" fill-rule="evenodd" d="M1161.6 689.8c-49.4-20.7-87.2 62.7-27 77.9l227.1 54.5 14.2-41c-70.8-29.4-143.6-61.9-214.3-91.4z" clip-rule="evenodd"/><path fill="#af96c6" fill-rule="evenodd" d="m1165.6 789 10.8 33.8c-17.3 10.8-34.8 21.1-52.1 32-12.2 7.5-30.1-42.2-14.8-45.3l56.1-20.5z" clip-rule="evenodd"/><path fill="#d0cae4" fill-rule="evenodd" d="m1161.7 820.4-5.8-17.7c-.1-.4-.5-.6-.9-.5l-2.7.9c-.4.2-.6.6-.5.9l5.8 17.8c.1.3.5.6.9.4l2.7-.9c.4-.1.7-.5.5-.9z" clip-rule="evenodd"/><path fill="#d0cae4" fill-rule="evenodd" d="m1152.8 824.4-5.8-17.7c-.1-.4-.5-.6-.9-.5l-2.8.9c-.3.1-.6.5-.4.9l5.8 17.7c.1.4.5.7.9.5l2.7-.9c.4-.1.6-.5.5-.9z" clip-rule="evenodd"/><path fill="#efad8d" fill-rule="evenodd" d="m1183 782.7 11.8 34.2c-6.2 1.9-12.3 3.8-18.6 5.7-9.6-5.9-16.6-24.3-10.7-33.3l17.5-6.6z" clip-rule="evenodd"/><path fill="#af96c6" fill-rule="evenodd" d="M1392.4 689.8c49.4-20.7 87.2 62.7 27 77.9l-227.1 54.5-14.2-41c70.8-29.4 143.5-61.9 214.3-91.4z" clip-rule="evenodd"/><path fill="#16b79e" fill-rule="evenodd" d="M1228.9 576.7c-9.7-13.4-19.4-26.7-29.2-40.1-8.1 8.2-35.8 55-53.7 82.4l46.4 12.2 36.5-54.5z" clip-rule="evenodd"/><path fill="#16b79e" fill-rule="evenodd" d="M1325.1 576.8c9.7-13.3 19.5-26.7 29.2-40 8.1 8.2 35.8 54.9 53.8 82.4l-46.4 12.2-36.6-54.6z" clip-rule="evenodd"/></g><g><path fill="#7d80bc" fill-rule="evenodd" d="M632.4 322.1c-18.3 12.6-37.2 23.8-59.2 34.7-65.9-96.9-31.8-177.8 60.3-234.3 100.3-49.4 175-32.9 229.4 46.5 41.1 76.1 37.9 105 23.4 138.4-32 70-14.4 102.3 3.5 129.4L878.6 464l-17.7 2.2-.8-7.2c-21.5 15.5-43.8 30-68 43.2-16.8-25.9-37.5-63.2-26.8-113 9.8-42.2 37.6-86.9 1.7-148.8-22.3-37.7-49.1-54.3-90.4-29.8-20.3 16.6-33 43.3-10.5 86.6L655 324.4l-22.6-2.3z" clip-rule="evenodd"/><path fill="#dccde4" fill-rule="evenodd" d="M655.1 324.4c-29.9 23.5-57.4 42.1-93 59.7-65.9-96.9-31.8-177.8 60.3-234.3 100.3-49.4 175-32.9 229.4 46.5 41.1 76.1 37.9 105 23.4 138.4-32 70-14.4 102.3 3.5 129.4-30.6 23.9-62.1 46.1-97.6 65.4-16.8-25.9-37.5-63.2-26.8-113 9.8-42.2 37.6-86.9 1.7-148.8-22.3-37.7-49.1-54.3-90.4-29.8-20.3 16.5-33 43.2-10.5 86.5z" clip-rule="evenodd"/><path fill="#7d80bc" fill-rule="evenodd" d="M858.3 508.8c31.9-18.5 74.6-4.3 95.5 31.7 20.9 36 12 80.2-19.9 98.7s-74.7 4.3-95.5-31.7c-20.9-36.1-12-80.2 19.9-98.7z" clip-rule="evenodd"/><path fill="#dccde4" fill-rule="evenodd" d="M847.9 523.8c31.9-18.5 74.6-4.3 95.5 31.7 20.9 36 12 80.2-19.9 98.7s-74.6 4.3-95.5-31.7c-20.9-36-12-80.2 19.9-98.7z" clip-rule="evenodd"/></g><g><path fill="#7d80bc" fill-rule="evenodd" d="m2550.1 1362.8-93.4-29.7 96-314.9 22.9-4 110.2 38.6-114.1 304.2z" clip-rule="evenodd"/><path fill="#dccde4" fill-rule="evenodd" d="m2552.3 1018 108 41.6-110.7 303-93.4-29.7z" clip-rule="evenodd"/><path fill="#7d80bc" fill-rule="evenodd" d="M2512.4 1378.2c29 9.3 44 43.4 33.5 76.2-10.5 32.8-42.6 51.8-71.6 42.5-29-9.3-44-43.5-33.5-76.3 10.5-32.7 42.5-51.7 71.6-42.4z" clip-rule="evenodd"/><path fill="#dccde4" fill-rule="evenodd" d="M2497.4 1380.2c29 9.3 44 43.4 33.5 76.2-10.5 32.8-42.6 51.8-71.6 42.5-29-9.3-44-43.5-33.5-76.3 10.5-32.7 42.5-51.8 71.6-42.4z" clip-rule="evenodd"/></g></svg>